<svg width="9" height="15" viewBox="0 0 9 15" fill="none" xmlns="http://www.w3.org/2000/svg">
<g clip-path="url(#clip0_1_358)">
<g clip-path="url(#clip1_1_358)">
<g clip-path="url(#clip2_1_358)">
<mask id="mask0_1_358" style="mask-type:luminance" maskUnits="userSpaceOnUse" x="0" y="0" width="9" height="15">
<path d="M8.5 0.829834H0.5V14.8298H8.5V0.829834Z" fill="white"/>
</mask>
<g mask="url(#mask0_1_358)">
<path d="M2.72716 8.73222H0.88716C0.59036 8.73222 0.497559 8.62722 0.497559 8.36434V6.24411C0.497559 5.96411 0.60876 5.87622 0.88716 5.87622H2.72716V4.33467C2.70546 3.64257 2.87862 2.95785 3.22796 2.35445C3.60182 1.74444 4.18778 1.28455 4.87996 1.05789C5.33952 0.902761 5.82311 0.825674 6.30956 0.830007H8.12876C8.38876 0.830007 8.49996 0.935006 8.49996 1.18078V3.17811C8.49996 3.42311 8.38876 3.52889 8.12876 3.52889C7.62796 3.52889 7.12636 3.52889 6.62556 3.54678C6.12476 3.54678 5.86476 3.77467 5.86476 4.26545C5.84636 4.79123 5.86476 5.29911 5.86476 5.84278H8.01996C8.31676 5.84278 8.42796 5.94778 8.42796 6.23167V8.35189C8.42796 8.63189 8.33516 8.71978 8.01996 8.71978H5.86396V14.4317C5.86396 14.7296 5.77116 14.8346 5.43676 14.8346H3.11676C2.83836 14.8346 2.72716 14.7296 2.72716 14.4667V8.73222Z" fill="#4267B2"/>
</g>
</g>
</g>
</g>
<defs>
<clipPath id="clip0_1_358">
<rect width="8" height="14" fill="white" transform="translate(0.5 0.829834)"/>
</clipPath>
<clipPath id="clip1_1_358">
<rect width="8" height="14" fill="white" transform="translate(0.5 0.829834)"/>
</clipPath>
<clipPath id="clip2_1_358">
<rect width="8" height="14" fill="white" transform="translate(0.5 0.829834)"/>
</clipPath>
</defs>
</svg>
