<svg width="18" height="18" viewBox="0 0 18 18" fill="none" xmlns="http://www.w3.org/2000/svg">
<g clip-path="url(#clip0_1_379)">
<g clip-path="url(#clip1_1_379)">
<g clip-path="url(#clip2_1_379)">
<mask id="mask0_1_379" style="mask-type:luminance" maskUnits="userSpaceOnUse" x="0" y="0" width="17" height="17">
<path d="M16.9 0.929443H0.899994V16.9294H16.9V0.929443Z" fill="white"/>
</mask>
<g mask="url(#mask0_1_379)">
<path d="M1.8998 2.0183C0.642468 3.3243 0.899801 4.71163 0.899801 8.9263C0.899801 12.4263 0.289134 15.9349 3.48514 16.7609C4.48314 17.0176 13.3258 17.0176 14.3225 16.7596C15.6531 16.4163 16.7358 15.3369 16.8838 13.4549C16.9045 13.1923 16.9045 4.66497 16.8831 4.39697C16.7258 2.3923 15.4918 1.23697 13.8658 1.00297C13.4931 0.94897 13.4185 0.93297 11.5065 0.929637C4.72447 0.93297 3.2378 0.63097 1.8998 2.0183Z" fill="url(#paint0_linear_1_379)"/>
<path d="M8.89886 3.02206C6.47819 3.02206 4.17953 2.80673 3.30153 5.06006C2.93886 5.99073 2.99153 7.1994 2.99153 8.93006C2.99153 10.4487 2.94286 11.876 3.30153 12.7994C4.17753 15.054 6.49486 14.838 8.89753 14.838C11.2155 14.838 13.6055 15.0794 14.4942 12.7994C14.8575 11.8594 14.8042 10.6687 14.8042 8.93006C14.8042 6.62206 14.9315 5.13206 13.8122 4.0134C12.6789 2.88006 11.1462 3.02206 8.89619 3.02206H8.89886ZM8.36953 4.08673C13.4189 4.07873 14.0615 3.5174 13.7069 11.3154C13.5809 14.0734 11.4809 13.7707 8.89953 13.7707C4.19286 13.7707 4.05753 13.636 4.05753 8.9274C4.05753 4.16406 4.43086 4.0894 8.36953 4.0854V4.08673ZM12.0522 5.0674C11.6609 5.0674 11.3435 5.38473 11.3435 5.77606C11.3435 6.1674 11.6609 6.48473 12.0522 6.48473C12.4435 6.48473 12.7609 6.1674 12.7609 5.77606C12.7609 5.38473 12.4435 5.0674 12.0522 5.0674ZM8.89886 5.89606C7.22353 5.89606 5.86553 7.25473 5.86553 8.93006C5.86553 10.6054 7.22353 11.9634 8.89886 11.9634C10.5742 11.9634 11.9315 10.6054 11.9315 8.93006C11.9315 7.25473 10.5742 5.89606 8.89886 5.89606ZM8.89886 6.96073C11.5022 6.96073 11.5055 10.8994 8.89886 10.8994C6.29619 10.8994 6.29219 6.96073 8.89886 6.96073Z" fill="white"/>
</g>
</g>
</g>
</g>
<defs>
<linearGradient id="paint0_linear_1_379" x1="1.93048" y1="15.9077" x2="16.8008" y2="3.03762" gradientUnits="userSpaceOnUse">
<stop stop-color="#FFDD55"/>
<stop offset="0.5" stop-color="#FF543E"/>
<stop offset="1" stop-color="#C837AB"/>
</linearGradient>
<clipPath id="clip0_1_379">
<rect width="17" height="17" fill="white" transform="translate(0.5 0.329834)"/>
</clipPath>
<clipPath id="clip1_1_379">
<rect width="17" height="17" fill="white" transform="translate(0.5 0.329834)"/>
</clipPath>
<clipPath id="clip2_1_379">
<rect width="17" height="17" fill="white" transform="translate(0.5 0.329834)"/>
</clipPath>
</defs>
</svg>
