<svg width="15" height="15" viewBox="0 0 15 15" fill="none" xmlns="http://www.w3.org/2000/svg">
<g clip-path="url(#clip0_1_372)">
<g clip-path="url(#clip1_1_372)">
<g clip-path="url(#clip2_1_372)">
<path d="M14.4967 14.8296L14.5002 14.829V9.69455C14.5002 7.18271 13.9595 5.2478 11.023 5.2478C9.61132 5.2478 8.66398 6.02247 8.27723 6.75688H8.2364V5.4823H5.45215V14.829H8.35132V10.2009C8.35132 8.9823 8.58232 7.80397 10.0914 7.80397C11.5783 7.80397 11.6005 9.19463 11.6005 10.2791V14.8296H14.4967Z" fill="#0077B5"/>
<path d="M0.731018 5.48315H3.63369V14.8299H0.731018V5.48315Z" fill="#0077B5"/>
<path d="M2.18117 0.829834C1.25308 0.829834 0.5 1.58292 0.5 2.511C0.5 3.43908 1.25308 4.20791 2.18117 4.20791C3.10925 4.20791 3.86233 3.43908 3.86233 2.511C3.86175 1.58292 3.10867 0.829834 2.18117 0.829834Z" fill="#0077B5"/>
</g>
</g>
</g>
<defs>
<clipPath id="clip0_1_372">
<rect width="14" height="14" fill="white" transform="translate(0.5 0.829834)"/>
</clipPath>
<clipPath id="clip1_1_372">
<rect width="14" height="14" fill="white" transform="translate(0.5 0.829834)"/>
</clipPath>
<clipPath id="clip2_1_372">
<rect width="14" height="14" fill="white" transform="translate(0.5 0.829834)"/>
</clipPath>
</defs>
</svg>
