<svg width="18" height="14" viewBox="0 0 18 14" fill="none" xmlns="http://www.w3.org/2000/svg">
<g clip-path="url(#clip0_1_367)">
<g clip-path="url(#clip1_1_367)">
<g clip-path="url(#clip2_1_367)">
<path d="M16.5798 1.96743C16.0086 2.21799 15.3999 2.38407 14.7654 2.46471C15.4182 2.07495 15.9164 1.46247 16.1507 0.72423C15.542 1.08711 14.87 1.34343 14.1539 1.48647C13.5759 0.87111 12.7523 0.48999 11.8537 0.48999C10.1103 0.48999 8.70683 1.90503 8.70683 3.63975C8.70683 3.88935 8.72795 4.12935 8.77979 4.35783C6.16187 4.23015 3.84539 2.97543 2.28923 1.06407C1.1764 3.06912 2.41979 4.71303 3.25691 5.27271C2.75099 5.26311 2.25467 5.11623 1.83419 4.88487C1.83419 6.44794 2.92571 7.72071 4.35707 8.01351C4.04411 8.11738 3.36039 8.17383 2.93531 8.06343C3.34331 9.31047 4.50107 10.2273 5.87771 10.257C4.80635 11.0951 3.22753 11.7782 1.21979 11.5568C2.61467 12.4564 4.26779 12.97 6.05051 12.97C11.8451 12.97 15.0131 8.16999 15.0131 4.00935C15.0131 3.87015 15.0083 3.73575 15.0015 3.60231C15.6265 3.15879 16.1516 2.60487 16.5798 1.96743Z" fill="#1DA1F3"/>
</g>
</g>
</g>
<defs>
<clipPath id="clip0_1_367">
<rect width="17" height="13" fill="white" transform="translate(0.5 0.329834)"/>
</clipPath>
<clipPath id="clip1_1_367">
<rect width="17" height="13" fill="white" transform="translate(0.5 0.329834)"/>
</clipPath>
<clipPath id="clip2_1_367">
<rect width="17" height="13" fill="white" transform="translate(0.5 0.329834)"/>
</clipPath>
</defs>
</svg>
